ISO-10303-21;
HEADER;
/* Generated by software containing ST-Developer
 * from STEP Tools, Inc. (www.steptools.com) 
 */
/* OPTION: using custom renumber hook */

FILE_DESCRIPTION(
/* description */ ('STEP AP242 Edition 2',
'CAx-IF Rec.Pracs.---Representation and Presentation of Product Manufa
cturing Information (PMI)---4.0---2014-10-13',
'CAx-IF Rec.Pracs.---3D Tessellated Geometry---0.4---2014-09-14','2;1',
'CAx-IF Rec.Pracs.---User Defined Attributes---1.5---2016-08-15'),
/* implementation_level */ '2;1');

FILE_NAME(
/* name */ '6982ab9f4d7fe0ecef93f476',
/* time_stamp */ '2026-02-04T02:14:56Z',
/* author */ (''),
/* organization */ (''),
/* preprocessor_version */ 'ST-DEVELOPER v20',
/* originating_system */ 'ONSHAPE BY PTC INC, 1.210',
/* authorisation */ '  ');

FILE_SCHEMA (('AP242_MANAGED_MODEL_BASED_3D_ENGINEERING_MIM_LF { 1 0 10303 442 3 1 4 }'));
ENDSEC;

DATA;
#10=SHAPE_REPRESENTATION_RELATIONSHIP('','',#635,#11);
#11=ADVANCED_BREP_SHAPE_REPRESENTATION('',(#633),#1229);
#12=CYLINDRICAL_SURFACE('',#686,0.008);
#13=CYLINDRICAL_SURFACE('',#688,0.009);
#14=CYLINDRICAL_SURFACE('',#690,0.005);
#15=CYLINDRICAL_SURFACE('',#692,0.006);
#16=B_SPLINE_CURVE_WITH_KNOTS('',3,(#1140,#1141,#1142,#1143,#1144,#1145,
#1146,#1147,#1148,#1149,#1150,#1151,#1152,#1153,#1154,#1155,#1156,#1157,
#1158),.UNSPECIFIED.,.T.,.F.,(1,1,1,1,1,1,1,1,1,1,1,1,1,1,1,1,1,1,1,1,1,
1,1),(-0.00234824042223019,-0.00156549361482012,-0.000782746807410062,0.,
0.000782746807410062,0.00156549361482012,0.00234824042223019,0.00313098722964025,
0.00391373403705031,0.00469648084446037,0.00547922765187043,0.00626197445928049,
0.00704472126669056,0.00782746807410062,0.00861021488151068,0.00939296168892074,
0.0101757084963308,0.0109584553037409,0.0117412021111509,0.012523948918561,
0.0133066957259711,0.0140894425333811,0.0148721893407912),.UNSPECIFIED.);
#17=B_SPLINE_CURVE_WITH_KNOTS('',3,(#1160,#1161,#1162,#1163,#1164,#1165,
#1166,#1167,#1168,#1169,#1170,#1171,#1172,#1173,#1174,#1175,#1176,#1177,
#1178,#1179,#1180,#1181,#1182,#1183,#1184,#1185,#1186,#1187,#1188),
 .UNSPECIFIED.,.T.,.F.,(1,1,1,1,1,1,1,1,1,1,1,1,1,1,1,1,1,1,1,1,1,1,1,1,
1,1,1,1,1,1,1,1,1),(-0.0953949424085117,-0.0641447471204256,-0.0328947373560213,
0.,0.0296875,0.060859375,0.09210546875,0.1233552734375,0.184292763671875,
0.246714638183594,0.30921073190918,0.342023036595459,0.373351151829773,
0.404605057591489,0.435855252879574,0.467105262643979,0.498355263132199,
0.52960526315661,0.56085526315783,0.592105263157892,0.623355263157895,0.684292763157895,
0.746714638157895,0.809210731907895,0.842023036595395,0.87335115182977,
0.904605057591488,0.935855252879574,0.967105262643979,1.,1.0296875,1.060859375,
1.09210546875),.UNSPECIFIED.);
#18=B_SPLINE_SURFACE_WITH_KNOTS('',1,3,((#1008,#1009,#1010,#1011,#1012,
#1013,#1014,#1015,#1016,#1017,#1018,#1019,#1020,#1021,#1022,#1023,#1024,
#1025,#1026,#1027,#1028,#1029,#1030,#1031,#1032,#1033,#1034,#1035,#1036,
#1037,#1038,#1039,#1040,#1041,#1042,#1043,#1044,#1045,#1046,#1047,#1048,
#1049,#1050,#1051,#1052,#1053,#1054,#1055,#1056,#1057,#1058,#1059,#1060,
#1061,#1062,#1063,#1064,#1065,#1066,#1067,#1068,#1069,#1070,#1071,#1072,
#1073),(#1074,#1075,#1076,#1077,#1078,#1079,#1080,#1081,#1082,#1083,#1084,
#1085,#1086,#1087,#1088,#1089,#1090,#1091,#1092,#1093,#1094,#1095,#1096,
#1097,#1098,#1099,#1100,#1101,#1102,#1103,#1104,#1105,#1106,#1107,#1108,
#1109,#1110,#1111,#1112,#1113,#1114,#1115,#1116,#1117,#1118,#1119,#1120,
#1121,#1122,#1123,#1124,#1125,#1126,#1127,#1128,#1129,#1130,#1131,#1132,
#1133,#1134,#1135,#1136,#1137,#1138,#1139)),.RULED_SURF.,.F.,.T.,.F.,(2,
2),(2,2,2,2,2,2,2,2,2,2,2,2,2,2,2,2,2,2,2,2,2,2,2,2,2,2,2,2,2,2,2,2,2,2,
2),(0.,1.),(-0.00019568670185251,0.,0.000391373403705021,0.000782746807410042,
0.00117412021111506,0.00156549361482009,0.00195686701852511,0.00234824042223013,
0.00313098722964017,0.00352236063334519,0.00391373403705021,0.00469648084446025,
0.00508785424816527,0.0054792276518703,0.00587060105557532,0.00606628775742783,
0.00626197445928034,0.00665334786298536,0.00704472126669038,0.0074360946703954,
0.00782746807410042,0.00861021488151046,0.00900158828521549,0.00939296168892051,
0.00978433509262553,0.0101757084963305,0.0105670819000356,0.0109584553037406,
0.0113498287074456,0.0117412021111506,0.0119368888130031,0.0121325755148557,
0.0123282622167082,0.0125239489185607,0.0129153223222657),.UNSPECIFIED.);
#19=CIRCLE('',#638,0.006);
#20=CIRCLE('',#639,0.009);
#21=CIRCLE('',#642,0.006);
#22=CIRCLE('',#643,0.009);
#23=CIRCLE('',#646,0.006);
#24=CIRCLE('',#647,0.009);
#25=CIRCLE('',#650,0.006);
#26=CIRCLE('',#651,0.009);
#27=CIRCLE('',#654,0.009);
#28=CIRCLE('',#655,0.006);
#29=CIRCLE('',#658,0.006);
#30=CIRCLE('',#659,0.009);
#31=CIRCLE('',#662,0.006);
#32=CIRCLE('',#663,0.009);
#33=CIRCLE('',#666,0.006);
#34=CIRCLE('',#667,0.009);
#35=CIRCLE('',#670,0.009);
#36=CIRCLE('',#671,0.006);
#37=CIRCLE('',#674,0.008);
#38=CIRCLE('',#675,0.005);
#39=CIRCLE('',#678,0.005);
#40=CIRCLE('',#679,0.009);
#41=CIRCLE('',#680,0.008);
#42=CIRCLE('',#681,0.009);
#43=CIRCLE('',#683,0.006);
#44=CIRCLE('',#684,0.009);
#45=ORIENTED_EDGE('',*,*,#225,.F.);
#46=ORIENTED_EDGE('',*,*,#226,.F.);
#47=ORIENTED_EDGE('',*,*,#227,.T.);
#48=ORIENTED_EDGE('',*,*,#228,.T.);
#49=ORIENTED_EDGE('',*,*,#227,.F.);
#50=ORIENTED_EDGE('',*,*,#229,.T.);
#51=ORIENTED_EDGE('',*,*,#230,.T.);
#52=ORIENTED_EDGE('',*,*,#231,.F.);
#53=ORIENTED_EDGE('',*,*,#230,.F.);
#54=ORIENTED_EDGE('',*,*,#232,.F.);
#55=ORIENTED_EDGE('',*,*,#233,.T.);
#56=ORIENTED_EDGE('',*,*,#234,.T.);
#57=ORIENTED_EDGE('',*,*,#233,.F.);
#58=ORIENTED_EDGE('',*,*,#235,.F.);
#59=ORIENTED_EDGE('',*,*,#236,.T.);
#60=ORIENTED_EDGE('',*,*,#237,.T.);
#61=ORIENTED_EDGE('',*,*,#236,.F.);
#62=ORIENTED_EDGE('',*,*,#238,.F.);
#63=ORIENTED_EDGE('',*,*,#239,.T.);
#64=ORIENTED_EDGE('',*,*,#240,.T.);
#65=ORIENTED_EDGE('',*,*,#239,.F.);
#66=ORIENTED_EDGE('',*,*,#241,.T.);
#67=ORIENTED_EDGE('',*,*,#242,.T.);
#68=ORIENTED_EDGE('',*,*,#243,.F.);
#69=ORIENTED_EDGE('',*,*,#242,.F.);
#70=ORIENTED_EDGE('',*,*,#244,.F.);
#71=ORIENTED_EDGE('',*,*,#245,.T.);
#72=ORIENTED_EDGE('',*,*,#246,.T.);
#73=ORIENTED_EDGE('',*,*,#245,.F.);
#74=ORIENTED_EDGE('',*,*,#247,.F.);
#75=ORIENTED_EDGE('',*,*,#248,.T.);
#76=ORIENTED_EDGE('',*,*,#249,.T.);
#77=ORIENTED_EDGE('',*,*,#250,.F.);
#78=ORIENTED_EDGE('',*,*,#251,.T.);
#79=ORIENTED_EDGE('',*,*,#248,.F.);
#80=ORIENTED_EDGE('',*,*,#252,.F.);
#81=ORIENTED_EDGE('',*,*,#253,.F.);
#82=ORIENTED_EDGE('',*,*,#254,.F.);
#83=ORIENTED_EDGE('',*,*,#255,.T.);
#84=ORIENTED_EDGE('',*,*,#256,.T.);
#85=ORIENTED_EDGE('',*,*,#255,.F.);
#86=ORIENTED_EDGE('',*,*,#257,.T.);
#87=ORIENTED_EDGE('',*,*,#258,.T.);
#88=ORIENTED_EDGE('',*,*,#259,.F.);
#89=ORIENTED_EDGE('',*,*,#258,.F.);
#90=ORIENTED_EDGE('',*,*,#260,.T.);
#91=ORIENTED_EDGE('',*,*,#261,.T.);
#92=ORIENTED_EDGE('',*,*,#262,.F.);
#93=ORIENTED_EDGE('',*,*,#261,.F.);
#94=ORIENTED_EDGE('',*,*,#263,.T.);
#95=ORIENTED_EDGE('',*,*,#264,.T.);
#96=ORIENTED_EDGE('',*,*,#265,.F.);
#97=ORIENTED_EDGE('',*,*,#264,.F.);
#98=ORIENTED_EDGE('',*,*,#266,.F.);
#99=ORIENTED_EDGE('',*,*,#267,.T.);
#100=ORIENTED_EDGE('',*,*,#268,.T.);
#101=ORIENTED_EDGE('',*,*,#267,.F.);
#102=ORIENTED_EDGE('',*,*,#269,.T.);
#103=ORIENTED_EDGE('',*,*,#270,.T.);
#104=ORIENTED_EDGE('',*,*,#271,.F.);
#105=ORIENTED_EDGE('',*,*,#270,.F.);
#106=ORIENTED_EDGE('',*,*,#272,.F.);
#107=ORIENTED_EDGE('',*,*,#273,.T.);
#108=ORIENTED_EDGE('',*,*,#274,.T.);
#109=ORIENTED_EDGE('',*,*,#275,.F.);
#110=ORIENTED_EDGE('',*,*,#276,.F.);
#111=ORIENTED_EDGE('',*,*,#273,.F.);
#112=ORIENTED_EDGE('',*,*,#277,.T.);
#113=ORIENTED_EDGE('',*,*,#278,.T.);
#114=ORIENTED_EDGE('',*,*,#279,.T.);
#115=ORIENTED_EDGE('',*,*,#279,.F.);
#116=ORIENTED_EDGE('',*,*,#280,.F.);
#117=ORIENTED_EDGE('',*,*,#281,.T.);
#118=ORIENTED_EDGE('',*,*,#282,.T.);
#119=ORIENTED_EDGE('',*,*,#283,.F.);
#120=ORIENTED_EDGE('',*,*,#284,.F.);
#121=ORIENTED_EDGE('',*,*,#285,.T.);
#122=ORIENTED_EDGE('',*,*,#281,.F.);
#123=ORIENTED_EDGE('',*,*,#286,.F.);
#124=ORIENTED_EDGE('',*,*,#287,.T.);
#125=ORIENTED_EDGE('',*,*,#288,.T.);
#126=ORIENTED_EDGE('',*,*,#289,.T.);
#127=ORIENTED_EDGE('',*,*,#289,.F.);
#128=ORIENTED_EDGE('',*,*,#290,.F.);
#129=ORIENTED_EDGE('',*,*,#291,.T.);
#130=ORIENTED_EDGE('',*,*,#292,.T.);
#131=ORIENTED_EDGE('',*,*,#293,.F.);
#132=ORIENTED_EDGE('',*,*,#294,.T.);
#133=ORIENTED_EDGE('',*,*,#295,.F.);
#134=ORIENTED_EDGE('',*,*,#296,.F.);
#135=ORIENTED_EDGE('',*,*,#297,.T.);
#136=ORIENTED_EDGE('',*,*,#298,.T.);
#137=ORIENTED_EDGE('',*,*,#299,.T.);
#138=ORIENTED_EDGE('',*,*,#300,.T.);
#139=ORIENTED_EDGE('',*,*,#301,.T.);
#140=ORIENTED_EDGE('',*,*,#302,.F.);
#141=ORIENTED_EDGE('',*,*,#303,.T.);
#142=ORIENTED_EDGE('',*,*,#304,.T.);
#143=ORIENTED_EDGE('',*,*,#253,.T.);
#144=ORIENTED_EDGE('',*,*,#305,.F.);
#145=ORIENTED_EDGE('',*,*,#306,.F.);
#146=ORIENTED_EDGE('',*,*,#291,.F.);
#147=ORIENTED_EDGE('',*,*,#292,.F.);
#148=ORIENTED_EDGE('',*,*,#306,.T.);
#149=ORIENTED_EDGE('',*,*,#307,.T.);
#150=ORIENTED_EDGE('',*,*,#300,.F.);
#151=ORIENTED_EDGE('',*,*,#308,.F.);
#152=ORIENTED_EDGE('',*,*,#283,.T.);
#153=ORIENTED_EDGE('',*,*,#293,.T.);
#154=ORIENTED_EDGE('',*,*,#284,.T.);
#155=ORIENTED_EDGE('',*,*,#308,.T.);
#156=ORIENTED_EDGE('',*,*,#299,.F.);
#157=ORIENTED_EDGE('',*,*,#309,.F.);
#158=ORIENTED_EDGE('',*,*,#282,.F.);
#159=ORIENTED_EDGE('',*,*,#285,.F.);
#160=ORIENTED_EDGE('',*,*,#309,.T.);
#161=ORIENTED_EDGE('',*,*,#298,.F.);
#162=ORIENTED_EDGE('',*,*,#310,.F.);
#163=ORIENTED_EDGE('',*,*,#275,.T.);
#164=ORIENTED_EDGE('',*,*,#268,.F.);
#165=ORIENTED_EDGE('',*,*,#271,.T.);
#166=ORIENTED_EDGE('',*,*,#274,.F.);
#167=ORIENTED_EDGE('',*,*,#276,.T.);
#168=ORIENTED_EDGE('',*,*,#310,.T.);
#169=ORIENTED_EDGE('',*,*,#297,.F.);
#170=ORIENTED_EDGE('',*,*,#228,.F.);
#171=ORIENTED_EDGE('',*,*,#231,.T.);
#172=ORIENTED_EDGE('',*,*,#234,.F.);
#173=ORIENTED_EDGE('',*,*,#237,.F.);
#174=ORIENTED_EDGE('',*,*,#240,.F.);
#175=ORIENTED_EDGE('',*,*,#243,.T.);
#176=ORIENTED_EDGE('',*,*,#246,.F.);
#177=ORIENTED_EDGE('',*,*,#249,.F.);
#178=ORIENTED_EDGE('',*,*,#251,.F.);
#179=ORIENTED_EDGE('',*,*,#301,.F.);
#180=ORIENTED_EDGE('',*,*,#307,.F.);
#181=ORIENTED_EDGE('',*,*,#305,.T.);
#182=ORIENTED_EDGE('',*,*,#256,.F.);
#183=ORIENTED_EDGE('',*,*,#259,.T.);
#184=ORIENTED_EDGE('',*,*,#262,.T.);
#185=ORIENTED_EDGE('',*,*,#265,.T.);
#186=ORIENTED_EDGE('',*,*,#290,.T.);
#187=ORIENTED_EDGE('',*,*,#288,.F.);
#188=ORIENTED_EDGE('',*,*,#311,.T.);
#189=ORIENTED_EDGE('',*,*,#302,.T.);
#190=ORIENTED_EDGE('',*,*,#250,.T.);
#191=ORIENTED_EDGE('',*,*,#312,.F.);
#192=ORIENTED_EDGE('',*,*,#303,.F.);
#193=ORIENTED_EDGE('',*,*,#294,.F.);
#194=ORIENTED_EDGE('',*,*,#287,.F.);
#195=ORIENTED_EDGE('',*,*,#313,.T.);
#196=ORIENTED_EDGE('',*,*,#295,.T.);
#197=ORIENTED_EDGE('',*,*,#311,.F.);
#198=ORIENTED_EDGE('',*,*,#280,.T.);
#199=ORIENTED_EDGE('',*,*,#278,.F.);
#200=ORIENTED_EDGE('',*,*,#314,.T.);
#201=ORIENTED_EDGE('',*,*,#225,.T.);
#202=ORIENTED_EDGE('',*,*,#296,.T.);
#203=ORIENTED_EDGE('',*,*,#313,.F.);
#204=ORIENTED_EDGE('',*,*,#286,.T.);
#205=ORIENTED_EDGE('',*,*,#266,.T.);
#206=ORIENTED_EDGE('',*,*,#263,.F.);
#207=ORIENTED_EDGE('',*,*,#260,.F.);
#208=ORIENTED_EDGE('',*,*,#257,.F.);
#209=ORIENTED_EDGE('',*,*,#254,.T.);
#210=ORIENTED_EDGE('',*,*,#304,.F.);
#211=ORIENTED_EDGE('',*,*,#312,.T.);
#212=ORIENTED_EDGE('',*,*,#252,.T.);
#213=ORIENTED_EDGE('',*,*,#247,.T.);
#214=ORIENTED_EDGE('',*,*,#244,.T.);
#215=ORIENTED_EDGE('',*,*,#241,.F.);
#216=ORIENTED_EDGE('',*,*,#238,.T.);
#217=ORIENTED_EDGE('',*,*,#235,.T.);
#218=ORIENTED_EDGE('',*,*,#232,.T.);
#219=ORIENTED_EDGE('',*,*,#229,.F.);
#220=ORIENTED_EDGE('',*,*,#226,.T.);
#221=ORIENTED_EDGE('',*,*,#314,.F.);
#222=ORIENTED_EDGE('',*,*,#277,.F.);
#223=ORIENTED_EDGE('',*,*,#272,.T.);
#224=ORIENTED_EDGE('',*,*,#269,.F.);
#225=EDGE_CURVE('',#315,#316,#375,.T.);
#226=EDGE_CURVE('',#317,#315,#19,.F.);
#227=EDGE_CURVE('',#317,#318,#376,.T.);
#228=EDGE_CURVE('',#318,#316,#20,.F.);
#229=EDGE_CURVE('',#317,#319,#377,.T.);
#230=EDGE_CURVE('',#319,#320,#378,.T.);
#231=EDGE_CURVE('',#318,#320,#379,.T.);
#232=EDGE_CURVE('',#321,#319,#21,.T.);
#233=EDGE_CURVE('',#321,#322,#380,.T.);
#234=EDGE_CURVE('',#322,#320,#22,.F.);
#235=EDGE_CURVE('',#323,#321,#381,.T.);
#236=EDGE_CURVE('',#323,#324,#382,.T.);
#237=EDGE_CURVE('',#324,#322,#383,.T.);
#238=EDGE_CURVE('',#325,#323,#23,.T.);
#239=EDGE_CURVE('',#325,#326,#384,.T.);
#240=EDGE_CURVE('',#326,#324,#24,.F.);
#241=EDGE_CURVE('',#325,#327,#385,.T.);
#242=EDGE_CURVE('',#327,#328,#386,.T.);
#243=EDGE_CURVE('',#326,#328,#387,.T.);
#244=EDGE_CURVE('',#329,#327,#25,.T.);
#245=EDGE_CURVE('',#329,#330,#388,.T.);
#246=EDGE_CURVE('',#330,#328,#26,.F.);
#247=EDGE_CURVE('',#331,#329,#389,.T.);
#248=EDGE_CURVE('',#331,#332,#390,.T.);
#249=EDGE_CURVE('',#332,#330,#391,.T.);
#250=EDGE_CURVE('',#333,#334,#392,.T.);
#251=EDGE_CURVE('',#333,#332,#27,.F.);
#252=EDGE_CURVE('',#334,#331,#28,.F.);
#253=EDGE_CURVE('',#335,#336,#393,.T.);
#254=EDGE_CURVE('',#337,#335,#394,.T.);
#255=EDGE_CURVE('',#337,#338,#395,.T.);
#256=EDGE_CURVE('',#338,#336,#396,.T.);
#257=EDGE_CURVE('',#337,#339,#29,.T.);
#258=EDGE_CURVE('',#339,#340,#397,.T.);
#259=EDGE_CURVE('',#338,#340,#30,.F.);
#260=EDGE_CURVE('',#339,#341,#398,.T.);
#261=EDGE_CURVE('',#341,#342,#399,.T.);
#262=EDGE_CURVE('',#340,#342,#400,.T.);
#263=EDGE_CURVE('',#341,#343,#31,.T.);
#264=EDGE_CURVE('',#343,#344,#401,.T.);
#265=EDGE_CURVE('',#342,#344,#32,.F.);
#266=EDGE_CURVE('',#345,#343,#402,.T.);
#267=EDGE_CURVE('',#345,#346,#403,.T.);
#268=EDGE_CURVE('',#346,#344,#404,.T.);
#269=EDGE_CURVE('',#345,#347,#33,.T.);
#270=EDGE_CURVE('',#347,#348,#405,.T.);
#271=EDGE_CURVE('',#346,#348,#34,.F.);
#272=EDGE_CURVE('',#349,#347,#406,.F.);
#273=EDGE_CURVE('',#349,#350,#407,.T.);
#274=EDGE_CURVE('',#350,#348,#408,.F.);
#275=EDGE_CURVE('',#351,#352,#409,.T.);
#276=EDGE_CURVE('',#350,#351,#35,.F.);
#277=EDGE_CURVE('',#349,#353,#36,.T.);
#278=EDGE_CURVE('',#353,#354,#410,.T.);
#279=EDGE_CURVE('',#354,#352,#411,.T.);
#280=EDGE_CURVE('',#355,#354,#412,.T.);
#281=EDGE_CURVE('',#355,#356,#413,.T.);
#282=EDGE_CURVE('',#356,#352,#414,.F.);
#283=EDGE_CURVE('',#357,#358,#415,.T.);
#284=EDGE_CURVE('',#359,#357,#37,.F.);
#285=EDGE_CURVE('',#359,#356,#416,.F.);
#286=EDGE_CURVE('',#360,#355,#417,.F.);
#287=EDGE_CURVE('',#360,#361,#38,.T.);
#288=EDGE_CURVE('',#361,#362,#418,.T.);
#289=EDGE_CURVE('',#362,#358,#419,.T.);
#290=EDGE_CURVE('',#363,#362,#420,.F.);
#291=EDGE_CURVE('',#363,#364,#421,.T.);
#292=EDGE_CURVE('',#364,#358,#422,.F.);
#293=EDGE_CURVE('',#365,#365,#16,.T.);
#294=EDGE_CURVE('',#366,#366,#17,.T.);
#295=EDGE_CURVE('',#367,#368,#39,.T.);
#296=EDGE_CURVE('',#316,#367,#423,.T.);
#297=EDGE_CURVE('',#316,#369,#40,.F.);
#298=EDGE_CURVE('',#369,#370,#424,.F.);
#299=EDGE_CURVE('',#370,#371,#41,.F.);
#300=EDGE_CURVE('',#371,#372,#425,.F.);
#301=EDGE_CURVE('',#372,#333,#42,.F.);
#302=EDGE_CURVE('',#368,#333,#426,.T.);
#303=EDGE_CURVE('',#363,#373,#427,.T.);
#304=EDGE_CURVE('',#373,#335,#43,.T.);
#305=EDGE_CURVE('',#374,#336,#44,.F.);
#306=EDGE_CURVE('',#364,#374,#428,.T.);
#307=EDGE_CURVE('',#374,#372,#429,.T.);
#308=EDGE_CURVE('',#357,#371,#430,.T.);
#309=EDGE_CURVE('',#359,#370,#431,.T.);
#310=EDGE_CURVE('',#351,#369,#432,.T.);
#311=EDGE_CURVE('',#361,#368,#433,.T.);
#312=EDGE_CURVE('',#373,#334,#434,.T.);
#313=EDGE_CURVE('',#360,#367,#435,.T.);
#314=EDGE_CURVE('',#353,#315,#436,.T.);
#315=VERTEX_POINT('',#872);
#316=VERTEX_POINT('',#873);
#317=VERTEX_POINT('',#875);
#318=VERTEX_POINT('',#877);
#319=VERTEX_POINT('',#881);
#320=VERTEX_POINT('',#883);
#321=VERTEX_POINT('',#887);
#322=VERTEX_POINT('',#889);
#323=VERTEX_POINT('',#893);
#324=VERTEX_POINT('',#895);
#325=VERTEX_POINT('',#899);
#326=VERTEX_POINT('',#901);
#327=VERTEX_POINT('',#905);
#328=VERTEX_POINT('',#907);
#329=VERTEX_POINT('',#911);
#330=VERTEX_POINT('',#913);
#331=VERTEX_POINT('',#917);
#332=VERTEX_POINT('',#919);
#333=VERTEX_POINT('',#923);
#334=VERTEX_POINT('',#924);
#335=VERTEX_POINT('',#929);
#336=VERTEX_POINT('',#930);
#337=VERTEX_POINT('',#932);
#338=VERTEX_POINT('',#934);
#339=VERTEX_POINT('',#938);
#340=VERTEX_POINT('',#940);
#341=VERTEX_POINT('',#944);
#342=VERTEX_POINT('',#946);
#343=VERTEX_POINT('',#950);
#344=VERTEX_POINT('',#952);
#345=VERTEX_POINT('',#956);
#346=VERTEX_POINT('',#958);
#347=VERTEX_POINT('',#962);
#348=VERTEX_POINT('',#964);
#349=VERTEX_POINT('',#968);
#350=VERTEX_POINT('',#970);
#351=VERTEX_POINT('',#974);
#352=VERTEX_POINT('',#975);
#353=VERTEX_POINT('',#978);
#354=VERTEX_POINT('',#980);
#355=VERTEX_POINT('',#984);
#356=VERTEX_POINT('',#986);
#357=VERTEX_POINT('',#990);
#358=VERTEX_POINT('',#991);
#359=VERTEX_POINT('',#993);
#360=VERTEX_POINT('',#996);
#361=VERTEX_POINT('',#998);
#362=VERTEX_POINT('',#1000);
#363=VERTEX_POINT('',#1004);
#364=VERTEX_POINT('',#1006);
#365=VERTEX_POINT('',#1159);
#366=VERTEX_POINT('',#1189);
#367=VERTEX_POINT('',#1192);
#368=VERTEX_POINT('',#1193);
#369=VERTEX_POINT('',#1196);
#370=VERTEX_POINT('',#1198);
#371=VERTEX_POINT('',#1200);
#372=VERTEX_POINT('',#1202);
#373=VERTEX_POINT('',#1207);
#374=VERTEX_POINT('',#1210);
#375=LINE('',#871,#437);
#376=LINE('',#876,#438);
#377=LINE('',#880,#439);
#378=LINE('',#882,#440);
#379=LINE('',#884,#441);
#380=LINE('',#888,#442);
#381=LINE('',#892,#443);
#382=LINE('',#894,#444);
#383=LINE('',#896,#445);
#384=LINE('',#900,#446);
#385=LINE('',#904,#447);
#386=LINE('',#906,#448);
#387=LINE('',#908,#449);
#388=LINE('',#912,#450);
#389=LINE('',#916,#451);
#390=LINE('',#918,#452);
#391=LINE('',#920,#453);
#392=LINE('',#922,#454);
#393=LINE('',#928,#455);
#394=LINE('',#931,#456);
#395=LINE('',#933,#457);
#396=LINE('',#935,#458);
#397=LINE('',#939,#459);
#398=LINE('',#943,#460);
#399=LINE('',#945,#461);
#400=LINE('',#947,#462);
#401=LINE('',#951,#463);
#402=LINE('',#955,#464);
#403=LINE('',#957,#465);
#404=LINE('',#959,#466);
#405=LINE('',#963,#467);
#406=LINE('',#967,#468);
#407=LINE('',#969,#469);
#408=LINE('',#971,#470);
#409=LINE('',#973,#471);
#410=LINE('',#979,#472);
#411=LINE('',#981,#473);
#412=LINE('',#983,#474);
#413=LINE('',#985,#475);
#414=LINE('',#987,#476);
#415=LINE('',#989,#477);
#416=LINE('',#994,#478);
#417=LINE('',#995,#479);
#418=LINE('',#999,#480);
#419=LINE('',#1001,#481);
#420=LINE('',#1003,#482);
#421=LINE('',#1005,#483);
#422=LINE('',#1007,#484);
#423=LINE('',#1194,#485);
#424=LINE('',#1197,#486);
#425=LINE('',#1201,#487);
#426=LINE('',#1204,#488);
#427=LINE('',#1206,#489);
#428=LINE('',#1211,#490);
#429=LINE('',#1213,#491);
#430=LINE('',#1214,#492);
#431=LINE('',#1216,#493);
#432=LINE('',#1218,#494);
#433=LINE('',#1221,#495);
#434=LINE('',#1222,#496);
#435=LINE('',#1224,#497);
#436=LINE('',#1226,#498);
#437=VECTOR('',#697,1.);
#438=VECTOR('',#700,1.);
#439=VECTOR('',#705,1.);
#440=VECTOR('',#706,1.);
#441=VECTOR('',#707,1.);
#442=VECTOR('',#712,1.);
#443=VECTOR('',#717,1.);
#444=VECTOR('',#718,1.);
#445=VECTOR('',#719,1.);
#446=VECTOR('',#724,1.);
#447=VECTOR('',#729,1.);
#448=VECTOR('',#730,1.);
#449=VECTOR('',#731,1.);
#450=VECTOR('',#736,1.);
#451=VECTOR('',#741,1.);
#452=VECTOR('',#742,1.);
#453=VECTOR('',#743,1.);
#454=VECTOR('',#746,1.);
#455=VECTOR('',#753,1.);
#456=VECTOR('',#754,1.);
#457=VECTOR('',#755,1.);
#458=VECTOR('',#756,1.);
#459=VECTOR('',#761,1.);
#460=VECTOR('',#766,1.);
#461=VECTOR('',#767,1.);
#462=VECTOR('',#768,1.);
#463=VECTOR('',#773,1.);
#464=VECTOR('',#778,1.);
#465=VECTOR('',#779,1.);
#466=VECTOR('',#780,1.);
#467=VECTOR('',#785,1.);
#468=VECTOR('',#790,1.);
#469=VECTOR('',#791,1.);
#470=VECTOR('',#792,1.);
#471=VECTOR('',#795,1.);
#472=VECTOR('',#800,1.);
#473=VECTOR('',#801,1.);
#474=VECTOR('',#804,1.);
#475=VECTOR('',#805,1.);
#476=VECTOR('',#806,1.);
#477=VECTOR('',#809,1.);
#478=VECTOR('',#812,1.);
#479=VECTOR('',#813,1.);
#480=VECTOR('',#816,1.);
#481=VECTOR('',#817,1.);
#482=VECTOR('',#820,1.);
#483=VECTOR('',#821,1.);
#484=VECTOR('',#822,1.);
#485=VECTOR('',#827,1.);
#486=VECTOR('',#830,1.);
#487=VECTOR('',#833,1.);
#488=VECTOR('',#836,1.);
#489=VECTOR('',#839,1.);
#490=VECTOR('',#844,1.);
#491=VECTOR('',#847,1.);
#492=VECTOR('',#848,1.);
#493=VECTOR('',#851,1.);
#494=VECTOR('',#854,1.);
#495=VECTOR('',#859,1.);
#496=VECTOR('',#860,1.);
#497=VECTOR('',#863,1.);
#498=VECTOR('',#866,1.);
#499=EDGE_LOOP('',(#45,#46,#47,#48));
#500=EDGE_LOOP('',(#49,#50,#51,#52));
#501=EDGE_LOOP('',(#53,#54,#55,#56));
#502=EDGE_LOOP('',(#57,#58,#59,#60));
#503=EDGE_LOOP('',(#61,#62,#63,#64));
#504=EDGE_LOOP('',(#65,#66,#67,#68));
#505=EDGE_LOOP('',(#69,#70,#71,#72));
#506=EDGE_LOOP('',(#73,#74,#75,#76));
#507=EDGE_LOOP('',(#77,#78,#79,#80));
#508=EDGE_LOOP('',(#81,#82,#83,#84));
#509=EDGE_LOOP('',(#85,#86,#87,#88));
#510=EDGE_LOOP('',(#89,#90,#91,#92));
#511=EDGE_LOOP('',(#93,#94,#95,#96));
#512=EDGE_LOOP('',(#97,#98,#99,#100));
#513=EDGE_LOOP('',(#101,#102,#103,#104));
#514=EDGE_LOOP('',(#105,#106,#107,#108));
#515=EDGE_LOOP('',(#109,#110,#111,#112,#113,#114));
#516=EDGE_LOOP('',(#115,#116,#117,#118));
#517=EDGE_LOOP('',(#119,#120,#121,#122,#123,#124,#125,#126));
#518=EDGE_LOOP('',(#127,#128,#129,#130));
#519=EDGE_LOOP('',(#131));
#520=EDGE_LOOP('',(#132));
#521=EDGE_LOOP('',(#133,#134,#135,#136,#137,#138,#139,#140));
#522=EDGE_LOOP('',(#141,#142,#143,#144,#145,#146));
#523=EDGE_LOOP('',(#147,#148,#149,#150,#151,#152));
#524=EDGE_LOOP('',(#153));
#525=EDGE_LOOP('',(#154,#155,#156,#157));
#526=EDGE_LOOP('',(#158,#159,#160,#161,#162,#163));
#527=EDGE_LOOP('',(#164,#165,#166,#167,#168,#169,#170,#171,#172,#173,#174,
#175,#176,#177,#178,#179,#180,#181,#182,#183,#184,#185));
#528=EDGE_LOOP('',(#186,#187,#188,#189,#190,#191,#192));
#529=EDGE_LOOP('',(#193));
#530=EDGE_LOOP('',(#194,#195,#196,#197));
#531=EDGE_LOOP('',(#198,#199,#200,#201,#202,#203,#204));
#532=EDGE_LOOP('',(#205,#206,#207,#208,#209,#210,#211,#212,#213,#214,#215,
#216,#217,#218,#219,#220,#221,#222,#223,#224));
#533=FACE_BOUND('',#499,.T.);
#534=FACE_BOUND('',#500,.T.);
#535=FACE_BOUND('',#501,.T.);
#536=FACE_BOUND('',#502,.T.);
#537=FACE_BOUND('',#503,.T.);
#538=FACE_BOUND('',#504,.T.);
#539=FACE_BOUND('',#505,.T.);
#540=FACE_BOUND('',#506,.T.);
#541=FACE_BOUND('',#507,.T.);
#542=FACE_BOUND('',#508,.T.);
#543=FACE_BOUND('',#509,.T.);
#544=FACE_BOUND('',#510,.T.);
#545=FACE_BOUND('',#511,.T.);
#546=FACE_BOUND('',#512,.T.);
#547=FACE_BOUND('',#513,.T.);
#548=FACE_BOUND('',#514,.T.);
#549=FACE_BOUND('',#515,.T.);
#550=FACE_BOUND('',#516,.T.);
#551=FACE_BOUND('',#517,.T.);
#552=FACE_BOUND('',#518,.T.);
#553=FACE_BOUND('',#519,.T.);
#554=FACE_BOUND('',#520,.T.);
#555=FACE_BOUND('',#521,.T.);
#556=FACE_BOUND('',#522,.T.);
#557=FACE_BOUND('',#523,.T.);
#558=FACE_BOUND('',#524,.T.);
#559=FACE_BOUND('',#525,.T.);
#560=FACE_BOUND('',#526,.T.);
#561=FACE_BOUND('',#527,.T.);
#562=FACE_BOUND('',#528,.T.);
#563=FACE_BOUND('',#529,.T.);
#564=FACE_BOUND('',#530,.T.);
#565=FACE_BOUND('',#531,.T.);
#566=FACE_BOUND('',#532,.T.);
#567=PLANE('',#637);
#568=PLANE('',#640);
#569=PLANE('',#641);
#570=PLANE('',#644);
#571=PLANE('',#645);
#572=PLANE('',#648);
#573=PLANE('',#649);
#574=PLANE('',#652);
#575=PLANE('',#653);
#576=PLANE('',#656);
#577=PLANE('',#657);
#578=PLANE('',#660);
#579=PLANE('',#661);
#580=PLANE('',#664);
#581=PLANE('',#665);
#582=PLANE('',#668);
#583=PLANE('',#669);
#584=PLANE('',#672);
#585=PLANE('',#673);
#586=PLANE('',#676);
#587=PLANE('',#677);
#588=PLANE('',#682);
#589=PLANE('',#685);
#590=PLANE('',#687);
#591=PLANE('',#689);
#592=PLANE('',#691);
#593=ADVANCED_FACE('',(#533),#567,.T.);
#594=ADVANCED_FACE('',(#534),#568,.T.);
#595=ADVANCED_FACE('',(#535),#569,.T.);
#596=ADVANCED_FACE('',(#536),#570,.F.);
#597=ADVANCED_FACE('',(#537),#571,.T.);
#598=ADVANCED_FACE('',(#538),#572,.T.);
#599=ADVANCED_FACE('',(#539),#573,.T.);
#600=ADVANCED_FACE('',(#540),#574,.F.);
#601=ADVANCED_FACE('',(#541),#575,.T.);
#602=ADVANCED_FACE('',(#542),#576,.F.);
#603=ADVANCED_FACE('',(#543),#577,.F.);
#604=ADVANCED_FACE('',(#544),#578,.T.);
#605=ADVANCED_FACE('',(#545),#579,.F.);
#606=ADVANCED_FACE('',(#546),#580,.F.);
#607=ADVANCED_FACE('',(#547),#581,.F.);
#608=ADVANCED_FACE('',(#548),#582,.T.);
#609=ADVANCED_FACE('',(#549),#583,.T.);
#610=ADVANCED_FACE('',(#550),#584,.T.);
#611=ADVANCED_FACE('',(#551),#585,.T.);
#612=ADVANCED_FACE('',(#552),#586,.T.);
#613=ADVANCED_FACE('',(#553,#554),#18,.T.);
#614=ADVANCED_FACE('',(#555),#587,.T.);
#615=ADVANCED_FACE('',(#556),#588,.T.);
#616=ADVANCED_FACE('',(#557),#589,.T.);
#617=ADVANCED_FACE('',(#558,#559),#12,.T.);
#618=ADVANCED_FACE('',(#560),#590,.T.);
#619=ADVANCED_FACE('',(#561),#13,.T.);
#620=ADVANCED_FACE('',(#562),#591,.F.);
#621=ADVANCED_FACE('',(#563,#564),#14,.F.);
#622=ADVANCED_FACE('',(#565),#592,.F.);
#623=ADVANCED_FACE('',(#566),#15,.F.);
#624=CLOSED_SHELL('',(#593,#594,#595,#596,#597,#598,#599,#600,#601,#602,
#603,#604,#605,#606,#607,#608,#609,#610,#611,#612,#613,#614,#615,#616,#617,
#618,#619,#620,#621,#622,#623));
#625=STYLED_ITEM('',(#626),#633);
#626=PRESENTATION_STYLE_ASSIGNMENT((#627));
#627=SURFACE_STYLE_USAGE(.BOTH.,#628);
#628=SURFACE_SIDE_STYLE('',(#629));
#629=SURFACE_STYLE_FILL_AREA(#630);
#630=FILL_AREA_STYLE('',(#631));
#631=FILL_AREA_STYLE_COLOUR('',#632);
#632=COLOUR_RGB('',0.172549019607843,0.172549019607843,0.172549019607843);
#633=MANIFOLD_SOLID_BREP('Sock',#624);
#634=SHAPE_DEFINITION_REPRESENTATION(#1234,#635);
#635=SHAPE_REPRESENTATION('Sock',(#636),#1229);
#636=AXIS2_PLACEMENT_3D('',#869,#693,#694);
#637=AXIS2_PLACEMENT_3D('',#870,#695,#696);
#638=AXIS2_PLACEMENT_3D('',#874,#698,#699);
#639=AXIS2_PLACEMENT_3D('',#878,#701,#702);
#640=AXIS2_PLACEMENT_3D('',#879,#703,#704);
#641=AXIS2_PLACEMENT_3D('',#885,#708,#709);
#642=AXIS2_PLACEMENT_3D('',#886,#710,#711);
#643=AXIS2_PLACEMENT_3D('',#890,#713,#714);
#644=AXIS2_PLACEMENT_3D('',#891,#715,#716);
#645=AXIS2_PLACEMENT_3D('',#897,#720,#721);
#646=AXIS2_PLACEMENT_3D('',#898,#722,#723);
#647=AXIS2_PLACEMENT_3D('',#902,#725,#726);
#648=AXIS2_PLACEMENT_3D('',#903,#727,#728);
#649=AXIS2_PLACEMENT_3D('',#909,#732,#733);
#650=AXIS2_PLACEMENT_3D('',#910,#734,#735);
#651=AXIS2_PLACEMENT_3D('',#914,#737,#738);
#652=AXIS2_PLACEMENT_3D('',#915,#739,#740);
#653=AXIS2_PLACEMENT_3D('',#921,#744,#745);
#654=AXIS2_PLACEMENT_3D('',#925,#747,#748);
#655=AXIS2_PLACEMENT_3D('',#926,#749,#750);
#656=AXIS2_PLACEMENT_3D('',#927,#751,#752);
#657=AXIS2_PLACEMENT_3D('',#936,#757,#758);
#658=AXIS2_PLACEMENT_3D('',#937,#759,#760);
#659=AXIS2_PLACEMENT_3D('',#941,#762,#763);
#660=AXIS2_PLACEMENT_3D('',#942,#764,#765);
#661=AXIS2_PLACEMENT_3D('',#948,#769,#770);
#662=AXIS2_PLACEMENT_3D('',#949,#771,#772);
#663=AXIS2_PLACEMENT_3D('',#953,#774,#775);
#664=AXIS2_PLACEMENT_3D('',#954,#776,#777);
#665=AXIS2_PLACEMENT_3D('',#960,#781,#782);
#666=AXIS2_PLACEMENT_3D('',#961,#783,#784);
#667=AXIS2_PLACEMENT_3D('',#965,#786,#787);
#668=AXIS2_PLACEMENT_3D('',#966,#788,#789);
#669=AXIS2_PLACEMENT_3D('',#972,#793,#794);
#670=AXIS2_PLACEMENT_3D('',#976,#796,#797);
#671=AXIS2_PLACEMENT_3D('',#977,#798,#799);
#672=AXIS2_PLACEMENT_3D('',#982,#802,#803);
#673=AXIS2_PLACEMENT_3D('',#988,#807,#808);
#674=AXIS2_PLACEMENT_3D('',#992,#810,#811);
#675=AXIS2_PLACEMENT_3D('',#997,#814,#815);
#676=AXIS2_PLACEMENT_3D('',#1002,#818,#819);
#677=AXIS2_PLACEMENT_3D('',#1190,#823,#824);
#678=AXIS2_PLACEMENT_3D('',#1191,#825,#826);
#679=AXIS2_PLACEMENT_3D('',#1195,#828,#829);
#680=AXIS2_PLACEMENT_3D('',#1199,#831,#832);
#681=AXIS2_PLACEMENT_3D('',#1203,#834,#835);
#682=AXIS2_PLACEMENT_3D('',#1205,#837,#838);
#683=AXIS2_PLACEMENT_3D('',#1208,#840,#841);
#684=AXIS2_PLACEMENT_3D('',#1209,#842,#843);
#685=AXIS2_PLACEMENT_3D('',#1212,#845,#846);
#686=AXIS2_PLACEMENT_3D('',#1215,#849,#850);
#687=AXIS2_PLACEMENT_3D('',#1217,#852,#853);
#688=AXIS2_PLACEMENT_3D('',#1219,#855,#856);
#689=AXIS2_PLACEMENT_3D('',#1220,#857,#858);
#690=AXIS2_PLACEMENT_3D('',#1223,#861,#862);
#691=AXIS2_PLACEMENT_3D('',#1225,#864,#865);
#692=AXIS2_PLACEMENT_3D('',#1227,#867,#868);
#693=DIRECTION('',(0.,0.,1.));
#694=DIRECTION('',(1.,0.,0.));
#695=DIRECTION('',(0.,0.,-1.));
#696=DIRECTION('',(-1.,0.,0.));
#697=DIRECTION('',(-0.125,0.992156741649222,0.));
#698=DIRECTION('',(0.,0.,1.));
#699=DIRECTION('',(1.,0.,0.));
#700=DIRECTION('',(0.552770798392567,0.833333333333333,0.));
#701=DIRECTION('',(0.,0.,1.));
#702=DIRECTION('',(1.,0.,0.));
#703=DIRECTION('',(-0.833333333333333,0.552770798392567,0.));
#704=DIRECTION('',(0.,0.,1.));
#705=DIRECTION('',(0.,0.,1.));
#706=DIRECTION('',(0.552770798392567,0.833333333333333,0.));
#707=DIRECTION('',(0.,0.,1.));
#708=DIRECTION('',(0.,0.,1.));
#709=DIRECTION('',(1.,0.,0.));
#710=DIRECTION('',(0.,0.,1.));
#711=DIRECTION('',(1.,0.,0.));
#712=DIRECTION('',(0.552770798392567,-0.833333333333333,0.));
#713=DIRECTION('',(0.,0.,-1.));
#714=DIRECTION('',(-1.,0.,0.));
#715=DIRECTION('',(0.833333333333333,0.552770798392567,0.));
#716=DIRECTION('',(0.,0.,1.));
#717=DIRECTION('',(0.,0.,1.));
#718=DIRECTION('',(0.552770798392567,-0.833333333333333,0.));
#719=DIRECTION('',(0.,0.,1.));
#720=DIRECTION('',(0.,0.,1.));
#721=DIRECTION('',(1.,0.,0.));
#722=DIRECTION('',(0.,0.,1.));
#723=DIRECTION('',(1.,0.,0.));
#724=DIRECTION('',(-0.552770798392567,-0.833333333333333,0.));
#725=DIRECTION('',(0.,0.,-1.));
#726=DIRECTION('',(-1.,0.,0.));
#727=DIRECTION('',(0.833333333333333,-0.552770798392567,0.));
#728=DIRECTION('',(0.,0.,1.));
#729=DIRECTION('',(0.,0.,1.));
#730=DIRECTION('',(-0.552770798392567,-0.833333333333333,0.));
#731=DIRECTION('',(0.,0.,1.));
#732=DIRECTION('',(0.,0.,1.));
#733=DIRECTION('',(1.,0.,0.));
#734=DIRECTION('',(0.,0.,1.));
#735=DIRECTION('',(1.,0.,0.));
#736=DIRECTION('',(-0.552770798392567,0.833333333333333,0.));
#737=DIRECTION('',(0.,0.,-1.));
#738=DIRECTION('',(-1.,0.,0.));
#739=DIRECTION('',(-0.833333333333333,-0.552770798392567,0.));
#740=DIRECTION('',(0.,0.,1.));
#741=DIRECTION('',(0.,0.,1.));
#742=DIRECTION('',(-0.552770798392567,0.833333333333333,0.));
#743=DIRECTION('',(0.,0.,1.));
#744=DIRECTION('',(0.,0.,-1.));
#745=DIRECTION('',(-1.,0.,0.));
#746=DIRECTION('',(-0.125,-0.992156741649222,0.));
#747=DIRECTION('',(0.,0.,1.));
#748=DIRECTION('',(1.,0.,0.));
#749=DIRECTION('',(0.,0.,1.));
#750=DIRECTION('',(1.,0.,0.));
#751=DIRECTION('',(0.208388306203718,-0.978046171628694,0.));
#752=DIRECTION('',(0.,0.,1.));
#753=DIRECTION('',(-0.978046171628694,-0.208388306203718,0.));
#754=DIRECTION('',(0.,0.,1.));
#755=DIRECTION('',(-0.978046171628694,-0.208388306203718,0.));
#756=DIRECTION('',(0.,0.,1.));
#757=DIRECTION('',(0.,0.,1.));
#758=DIRECTION('',(1.,0.,0.));
#759=DIRECTION('',(0.,0.,1.));
#760=DIRECTION('',(1.,0.,0.));
#761=DIRECTION('',(-0.833328703690891,-0.552777777777706,0.));
#762=DIRECTION('',(0.,0.,-1.));
#763=DIRECTION('',(-1.,0.,0.));
#764=DIRECTION('',(0.552777777777706,-0.833328703690891,0.));
#765=DIRECTION('',(0.,0.,1.));
#766=DIRECTION('',(0.,0.,1.));
#767=DIRECTION('',(-0.833328703690891,-0.552777777777706,0.));
#768=DIRECTION('',(0.,0.,1.));
#769=DIRECTION('',(0.,0.,1.));
#770=DIRECTION('',(1.,0.,0.));
#771=DIRECTION('',(0.,0.,1.));
#772=DIRECTION('',(1.,0.,0.));
#773=DIRECTION('',(0.833328703690891,-0.552777777777706,0.));
#774=DIRECTION('',(0.,0.,-1.));
#775=DIRECTION('',(-1.,0.,0.));
#776=DIRECTION('',(0.552777777777706,0.833328703690891,0.));
#777=DIRECTION('',(0.,0.,1.));
#778=DIRECTION('',(0.,0.,1.));
#779=DIRECTION('',(0.833328703690891,-0.552777777777706,0.));
#780=DIRECTION('',(0.,0.,1.));
#781=DIRECTION('',(0.,0.,1.));
#782=DIRECTION('',(1.,0.,0.));
#783=DIRECTION('',(0.,0.,1.));
#784=DIRECTION('',(1.,0.,0.));
#785=DIRECTION('',(0.978046171628816,-0.208388306203149,0.));
#786=DIRECTION('',(0.,0.,-1.));
#787=DIRECTION('',(-1.,0.,0.));
#788=DIRECTION('',(0.208388306203149,0.978046171628816,0.));
#789=DIRECTION('',(0.,0.,1.));
#790=DIRECTION('',(0.,0.,1.));
#791=DIRECTION('',(0.978046171628816,-0.208388306203149,0.));
#792=DIRECTION('',(0.,0.,1.));
#793=DIRECTION('',(0.,0.,-1.));
#794=DIRECTION('',(-0.125,0.992156741649222,0.));
#795=DIRECTION('',(-0.125,0.992156741649222,0.));
#796=DIRECTION('',(0.,0.,-1.));
#797=DIRECTION('',(-1.,0.,0.));
#798=DIRECTION('',(0.,0.,1.));
#799=DIRECTION('',(1.,0.,0.));
#800=DIRECTION('',(-0.125,0.992156741649222,0.));
#801=DIRECTION('',(0.992156741649222,0.125,0.));
#802=DIRECTION('',(0.125,-0.992156741649222,0.));
#803=DIRECTION('',(0.,0.,-1.));
#804=DIRECTION('',(0.,0.,1.));
#805=DIRECTION('',(0.992156741649222,0.125,0.));
#806=DIRECTION('',(0.,0.,-1.));
#807=DIRECTION('',(0.,0.,-1.));
#808=DIRECTION('',(-0.125,-0.992156741649222,0.));
#809=DIRECTION('',(-0.125,-0.992156741649222,0.));
#810=DIRECTION('',(0.,0.,-1.));
#811=DIRECTION('',(-1.,0.,0.));
#812=DIRECTION('',(-0.125,0.992156741649222,0.));
#813=DIRECTION('',(-0.125,0.992156741649222,0.));
#814=DIRECTION('',(0.,0.,1.));
#815=DIRECTION('',(1.,0.,0.));
#816=DIRECTION('',(-0.125,-0.992156741649222,0.));
#817=DIRECTION('',(-0.992156741649222,0.125,0.));
#818=DIRECTION('',(-0.125,-0.992156741649222,0.));
#819=DIRECTION('',(0.,0.,1.));
#820=DIRECTION('',(0.,0.,1.));
#821=DIRECTION('',(-0.992156741649222,0.125,0.));
#822=DIRECTION('',(0.,0.,1.));
#823=DIRECTION('',(0.,0.,1.));
#824=DIRECTION('',(1.,0.,0.));
#825=DIRECTION('',(0.,0.,1.));
#826=DIRECTION('',(1.,0.,0.));
#827=DIRECTION('',(-0.125,0.992156741649222,0.));
#828=DIRECTION('',(0.,0.,1.));
#829=DIRECTION('',(1.,0.,0.));
#830=DIRECTION('',(0.125,-0.992156741649222,0.));
#831=DIRECTION('',(0.,0.,-1.));
#832=DIRECTION('',(-1.,0.,0.));
#833=DIRECTION('',(0.125,0.992156741649222,0.));
#834=DIRECTION('',(0.,0.,1.));
#835=DIRECTION('',(1.,0.,0.));
#836=DIRECTION('',(-0.125,-0.992156741649222,0.));
#837=DIRECTION('',(0.,0.,-1.));
#838=DIRECTION('',(-0.125,-0.992156741649222,0.));
#839=DIRECTION('',(-0.125,-0.992156741649222,0.));
#840=DIRECTION('',(0.,0.,1.));
#841=DIRECTION('',(1.,0.,0.));
#842=DIRECTION('',(0.,0.,-1.));
#843=DIRECTION('',(-1.,0.,0.));
#844=DIRECTION('',(-0.125,-0.992156741649222,0.));
#845=DIRECTION('',(-0.992156741649222,0.125,0.));
#846=DIRECTION('',(-0.125,-0.992156741649222,0.));
#847=DIRECTION('',(0.,0.,1.));
#848=DIRECTION('',(0.,0.,1.));
#849=DIRECTION('',(0.,0.,1.));
#850=DIRECTION('',(1.,0.,0.));
#851=DIRECTION('',(0.,0.,1.));
#852=DIRECTION('',(0.992156741649222,0.125,0.));
#853=DIRECTION('',(-0.125,0.992156741649222,0.));
#854=DIRECTION('',(0.,0.,1.));
#855=DIRECTION('',(0.,0.,1.));
#856=DIRECTION('',(6.12323399573677E-17,-1.,0.));
#857=DIRECTION('',(-0.992156741649222,0.125,0.));
#858=DIRECTION('',(-0.125,-0.992156741649222,0.));
#859=DIRECTION('',(0.,0.,1.));
#860=DIRECTION('',(0.,0.,1.));
#861=DIRECTION('',(0.,0.,1.));
#862=DIRECTION('',(1.,0.,0.));
#863=DIRECTION('',(0.,0.,1.));
#864=DIRECTION('',(0.992156741649222,0.125,0.));
#865=DIRECTION('',(-0.125,0.992156741649222,0.));
#866=DIRECTION('',(0.,0.,1.));
#867=DIRECTION('',(0.,0.,1.));
#868=DIRECTION('',(6.12323399573677E-17,-1.,0.));
#869=CARTESIAN_POINT('',(0.,0.,0.));
#870=CARTESIAN_POINT('',(0.,0.,0.05));
#871=CARTESIAN_POINT('',(0.00595294044989533,0.00075,0.05));
#872=CARTESIAN_POINT('',(0.00595294044989533,0.00075,0.05));
#873=CARTESIAN_POINT('',(0.00511441495833291,0.00740558975598707,0.05));
#874=CARTESIAN_POINT('',(0.,0.,0.05));
#875=CARTESIAN_POINT('',(0.0033166247903554,0.005,0.05));
#876=CARTESIAN_POINT('',(0.0049749371855331,0.0075,0.05));
#877=CARTESIAN_POINT('',(0.0049749371855331,0.0075,0.05));
#878=CARTESIAN_POINT('',(0.,0.,0.05));
#879=CARTESIAN_POINT('',(0.0049749371855331,0.0075,0.0525));
#880=CARTESIAN_POINT('',(0.0033166247903554,0.005,0.));
#881=CARTESIAN_POINT('',(0.0033166247903554,0.005,0.055));
#882=CARTESIAN_POINT('',(0.0049749371855331,0.0075,0.055));
#883=CARTESIAN_POINT('',(0.0049749371855331,0.0075,0.055));
#884=CARTESIAN_POINT('',(0.0049749371855331,0.0075,0.05));
#885=CARTESIAN_POINT('',(0.,0.,0.055));
#886=CARTESIAN_POINT('',(0.,0.,0.055));
#887=CARTESIAN_POINT('',(0.0033166247903554,-0.005,0.055));
#888=CARTESIAN_POINT('',(0.0049749371855331,-0.0075,0.055));
#889=CARTESIAN_POINT('',(0.0049749371855331,-0.0075,0.055));
#890=CARTESIAN_POINT('',(0.,0.,0.055));
#891=CARTESIAN_POINT('',(0.0049749371855331,-0.0075,0.0525));
#892=CARTESIAN_POINT('',(0.0033166247903554,-0.005,0.));
#893=CARTESIAN_POINT('',(0.0033166247903554,-0.005,0.05));
#894=CARTESIAN_POINT('',(0.0049749371855331,-0.0075,0.05));
#895=CARTESIAN_POINT('',(0.0049749371855331,-0.0075,0.05));
#896=CARTESIAN_POINT('',(0.0049749371855331,-0.0075,0.05));
#897=CARTESIAN_POINT('',(0.,0.,0.05));
#898=CARTESIAN_POINT('',(0.,0.,0.05));
#899=CARTESIAN_POINT('',(-0.0033166247903554,-0.005,0.05));
#900=CARTESIAN_POINT('',(-0.0049749371855331,-0.0075,0.05));
#901=CARTESIAN_POINT('',(-0.0049749371855331,-0.0075,0.05));
#902=CARTESIAN_POINT('',(0.,0.,0.05));
#903=CARTESIAN_POINT('',(-0.0049749371855331,-0.0075,0.0525));
#904=CARTESIAN_POINT('',(-0.0033166247903554,-0.005,0.));
#905=CARTESIAN_POINT('',(-0.0033166247903554,-0.005,0.055));
#906=CARTESIAN_POINT('',(-0.0049749371855331,-0.0075,0.055));
#907=CARTESIAN_POINT('',(-0.0049749371855331,-0.0075,0.055));
#908=CARTESIAN_POINT('',(-0.0049749371855331,-0.0075,0.05));
#909=CARTESIAN_POINT('',(0.,0.,0.055));
#910=CARTESIAN_POINT('',(0.,0.,0.055));
#911=CARTESIAN_POINT('',(-0.0033166247903554,0.005,0.055));
#912=CARTESIAN_POINT('',(-0.0049749371855331,0.0075,0.055));
#913=CARTESIAN_POINT('',(-0.0049749371855331,0.0075,0.055));
#914=CARTESIAN_POINT('',(0.,0.,0.055));
#915=CARTESIAN_POINT('',(-0.0049749371855331,0.0075,0.0525));
#916=CARTESIAN_POINT('',(-0.0033166247903554,0.005,0.));
#917=CARTESIAN_POINT('',(-0.0033166247903554,0.005,0.05));
#918=CARTESIAN_POINT('',(-0.0049749371855331,0.0075,0.05));
#919=CARTESIAN_POINT('',(-0.0049749371855331,0.0075,0.05));
#920=CARTESIAN_POINT('',(-0.0049749371855331,0.0075,0.05));
#921=CARTESIAN_POINT('',(0.,0.,0.05));
#922=CARTESIAN_POINT('',(-0.00496078370824611,0.008625,0.05));
#923=CARTESIAN_POINT('',(-0.00511441495833291,0.00740558975598707,0.05));
#924=CARTESIAN_POINT('',(-0.00595294044989533,0.00075,0.05));
#925=CARTESIAN_POINT('',(0.,0.,0.05));
#926=CARTESIAN_POINT('',(0.,0.,0.05));
#927=CARTESIAN_POINT('',(-0.00880241554465825,-0.00187549475583346,0.00075));
#928=CARTESIAN_POINT('',(-0.00880241554465825,-0.00187549475583346,0.0015));
#929=CARTESIAN_POINT('',(-0.00586827702977217,-0.00125032983722231,0.0015));
#930=CARTESIAN_POINT('',(-0.00880241554465825,-0.00187549475583346,0.0015));
#931=CARTESIAN_POINT('',(-0.00586827702977217,-0.00125032983722231,0.));
#932=CARTESIAN_POINT('',(-0.00586827702977217,-0.00125032983722231,0.));
#933=CARTESIAN_POINT('',(-0.00880241554465825,-0.00187549475583346,0.));
#934=CARTESIAN_POINT('',(-0.00880241554465825,-0.00187549475583346,0.));
#935=CARTESIAN_POINT('',(-0.00880241554465825,-0.00187549475583346,0.));
#936=CARTESIAN_POINT('',(0.,0.,0.));
#937=CARTESIAN_POINT('',(0.,0.,0.));
#938=CARTESIAN_POINT('',(-0.00499997222214535,-0.00331666666666624,0.));
#939=CARTESIAN_POINT('',(-0.00749995833321802,-0.00497499999999935,0.));
#940=CARTESIAN_POINT('',(-0.00749995833321802,-0.00497499999999935,0.));
#941=CARTESIAN_POINT('',(0.,0.,0.));
#942=CARTESIAN_POINT('',(-0.00749995833321802,-0.00497499999999935,0.005));
#943=CARTESIAN_POINT('',(-0.00499997222214535,-0.00331666666666624,0.));
#944=CARTESIAN_POINT('',(-0.00499997222214535,-0.00331666666666624,0.01));
#945=CARTESIAN_POINT('',(-0.00749995833321802,-0.00497499999999935,0.01));
#946=CARTESIAN_POINT('',(-0.00749995833321802,-0.00497499999999935,0.01));
#947=CARTESIAN_POINT('',(-0.00749995833321802,-0.00497499999999935,0.));
#948=CARTESIAN_POINT('',(0.,0.,0.01));
#949=CARTESIAN_POINT('',(0.,0.,0.01));
#950=CARTESIAN_POINT('',(0.00499997222214535,-0.00331666666666624,0.01));
#951=CARTESIAN_POINT('',(0.00749995833321802,-0.00497499999999936,0.01));
#952=CARTESIAN_POINT('',(0.00749995833321802,-0.00497499999999936,0.01));
#953=CARTESIAN_POINT('',(0.,0.,0.01));
#954=CARTESIAN_POINT('',(0.00749995833321802,-0.00497499999999936,0.005));
#955=CARTESIAN_POINT('',(0.00499997222214535,-0.00331666666666624,0.));
#956=CARTESIAN_POINT('',(0.00499997222214535,-0.00331666666666624,0.));
#957=CARTESIAN_POINT('',(0.00749995833321802,-0.00497499999999936,0.));
#958=CARTESIAN_POINT('',(0.00749995833321802,-0.00497499999999936,0.));
#959=CARTESIAN_POINT('',(0.00749995833321802,-0.00497499999999936,0.));
#960=CARTESIAN_POINT('',(0.,0.,0.));
#961=CARTESIAN_POINT('',(0.,0.,0.));
#962=CARTESIAN_POINT('',(0.0058682770297729,-0.00125032983721889,0.));
#963=CARTESIAN_POINT('',(0.00880241554465934,-0.00187549475582833,0.));
#964=CARTESIAN_POINT('',(0.00880241554465934,-0.00187549475582833,0.));
#965=CARTESIAN_POINT('',(0.,0.,0.));
#966=CARTESIAN_POINT('',(0.00880241554465934,-0.00187549475582833,0.00075));
#967=CARTESIAN_POINT('',(0.0058682770297729,-0.00125032983721889,0.));
#968=CARTESIAN_POINT('',(0.0058682770297729,-0.00125032983721889,0.0015));
#969=CARTESIAN_POINT('',(0.00880241554465934,-0.00187549475582833,0.0015));
#970=CARTESIAN_POINT('',(0.00880241554465934,-0.00187549475582833,0.0015));
#971=CARTESIAN_POINT('',(0.00880241554465934,-0.00187549475582833,0.0015));
#972=CARTESIAN_POINT('',(0.008929410674843,0.001125,0.0015));
#973=CARTESIAN_POINT('',(0.008929410674843,0.001125,0.0015));
#974=CARTESIAN_POINT('',(0.00892941067484299,0.001125,0.0015));
#975=CARTESIAN_POINT('',(0.00871936928441016,0.0027921518523465,0.0015));
#976=CARTESIAN_POINT('',(0.,0.,0.0015));
#977=CARTESIAN_POINT('',(0.,0.,0.0015));
#978=CARTESIAN_POINT('',(0.00595294044989533,0.00075,0.0015));
#979=CARTESIAN_POINT('',(0.00595294044989533,0.00075,0.0015));
#980=CARTESIAN_POINT('',(0.0057428990594625,0.0024171518523465,0.0015));
#981=CARTESIAN_POINT('',(0.00871936928441016,0.0027921518523465,0.0015));
#982=CARTESIAN_POINT('',(0.00871936928441016,0.0027921518523465,0.));
#983=CARTESIAN_POINT('',(0.0057428990594625,0.0024171518523465,0.));
#984=CARTESIAN_POINT('',(0.0057428990594625,0.0024171518523465,0.));
#985=CARTESIAN_POINT('',(0.00871936928441016,0.0027921518523465,0.));
#986=CARTESIAN_POINT('',(0.00871936928441016,0.0027921518523465,0.));
#987=CARTESIAN_POINT('',(0.00871936928441016,0.0027921518523465,0.));
#988=CARTESIAN_POINT('',(-0.00793725393319378,0.009,0.));
#989=CARTESIAN_POINT('',(-0.00793725393319378,0.009,0.));
#990=CARTESIAN_POINT('',(-0.00793725393319377,0.009,0.));
#991=CARTESIAN_POINT('',(-0.00871936928441016,0.0027921518523465,0.));
#992=CARTESIAN_POINT('',(0.,0.008,0.));
#993=CARTESIAN_POINT('',(0.00793725393319377,0.009,0.));
#994=CARTESIAN_POINT('',(0.00793725393319378,0.009,0.));
#995=CARTESIAN_POINT('',(0.00595294044989533,0.00075,0.));
#996=CARTESIAN_POINT('',(0.00496078370824611,0.008625,0.));
#997=CARTESIAN_POINT('',(0.,0.008,0.));
#998=CARTESIAN_POINT('',(-0.00496078370824611,0.008625,0.));
#999=CARTESIAN_POINT('',(-0.00496078370824611,0.008625,0.));
#1000=CARTESIAN_POINT('',(-0.0057428990594625,0.00241715185234649,0.));
#1001=CARTESIAN_POINT('',(-0.00871936928441016,0.0027921518523465,0.));
#1002=CARTESIAN_POINT('',(-0.00871936928441017,0.00279215185234649,0.));
#1003=CARTESIAN_POINT('',(-0.0057428990594625,0.00241715185234648,0.));
#1004=CARTESIAN_POINT('',(-0.0057428990594625,0.00241715185234648,0.0015));
#1005=CARTESIAN_POINT('',(-0.00871936928441017,0.00279215185234649,0.0015));
#1006=CARTESIAN_POINT('',(-0.00871936928441017,0.00279215185234649,0.0015));
#1007=CARTESIAN_POINT('',(-0.00871936928441017,0.00279215185234649,0.));
#1008=CARTESIAN_POINT('',(-0.00238901537243192,0.0156349764296121,0.0258426478870913));
#1009=CARTESIAN_POINT('',(-0.00234286184135474,0.0156493160814626,0.0256496209841334));
#1010=CARTESIAN_POINT('',(-0.00228786878409231,0.0156662449119313,0.0255318761830933));
#1011=CARTESIAN_POINT('',(-0.00214335718026548,0.0157078968999813,0.0253149637944541));
#1012=CARTESIAN_POINT('',(-0.00205702450167031,0.0157316570479328,0.0252202626760036));
#1013=CARTESIAN_POINT('',(-0.001864383858848,0.0157803562472542,0.0250496437259965));
#1014=CARTESIAN_POINT('',(-0.00175846030042077,0.0158051571174855,0.0249747700794185));
#1015=CARTESIAN_POINT('',(-0.00153825336636628,0.0158515244913108,0.0248447456059742));
#1016=CARTESIAN_POINT('',(-0.00142292353600096,0.0158733759008039,0.0247887816991562));
#1017=CARTESIAN_POINT('',(-0.00118319129236925,0.015912952535579,0.0246919049327205));
#1018=CARTESIAN_POINT('',(-0.00105943340679766,0.0159305327084565,0.0246514075132321));
#1019=CARTESIAN_POINT('',(-0.000810169223596463,0.0159598601754348,0.024585515108272));
#1020=CARTESIAN_POINT('',(-0.000683875613478245,0.015971746486387,0.0245598187233129));
#1021=CARTESIAN_POINT('',(-0.000300291349909842,0.0159984708974218,0.0245027713039808));
#1022=CARTESIAN_POINT('',(-3.60018799417994E-5,0.0160041012822896,0.0244913970487376));
#1023=CARTESIAN_POINT('',(0.000351920406317609,0.0159933025337307,0.0245139755500309));
#1024=CARTESIAN_POINT('',(0.000480428868926699,0.0159865879564698,0.0245280598353228));
#1025=CARTESIAN_POINT('',(0.000735805664062695,0.0159671192478374,0.0245698554123797));
#1026=CARTESIAN_POINT('',(0.000863367891957947,0.0159542722873593,0.0245978049329398));
#1027=CARTESIAN_POINT('',(0.00123818560726279,0.0159076104706309,0.0247036377294743));
#1028=CARTESIAN_POINT('',(0.00147516953381395,0.0158660252672671,0.0248010325405486));
#1029=CARTESIAN_POINT('',(0.00180453245107379,0.0157946316332278,0.0250063299785931));
#1030=CARTESIAN_POINT('',(0.00190711459170591,0.0157699561116046,0.0250832600058029));
#1031=CARTESIAN_POINT('',(0.00209390050493219,0.0157217151409258,0.0252593847176274));
#1032=CARTESIAN_POINT('',(0.00217839149807194,0.0156980157717101,0.0253594588157242));
#1033=CARTESIAN_POINT('',(0.00231188949812935,0.0156589818702495,0.0255803907023834));
#1034=CARTESIAN_POINT('',(0.00236189130163082,0.0156434322943136,0.0257038772053611));
#1035=CARTESIAN_POINT('',(0.00239660319274924,0.0156325906529909,0.0258969510484902));
#1036=CARTESIAN_POINT('',(0.0024015582976567,0.0156310236627802,0.0259636124129345));
#1037=CARTESIAN_POINT('',(0.00239755670054553,0.0156322818518857,0.0260941998510971));
#1038=CARTESIAN_POINT('',(0.00238878201017229,0.015635049517484,0.0261588640194155));
#1039=CARTESIAN_POINT('',(0.00234253061867401,0.0156494178083561,0.026351010486858));
#1040=CARTESIAN_POINT('',(0.00228631339240965,0.0156667061208863,0.026470870914355));
#1041=CARTESIAN_POINT('',(0.00214234473700367,0.0157081755753343,0.0266861376277901));
#1042=CARTESIAN_POINT('',(0.00205599690089558,0.0157319387730937,0.0267809013929505));
#1043=CARTESIAN_POINT('',(0.00186208188069526,0.0157809158533523,0.0269521141772068));
#1044=CARTESIAN_POINT('',(0.00175737402962484,0.0158054011581169,0.027025925991427));
#1045=CARTESIAN_POINT('',(0.00153724385583472,0.015851721597639,0.0271558196350551));
#1046=CARTESIAN_POINT('',(0.00142107154007314,0.0158737137699625,0.0272120663722265));
#1047=CARTESIAN_POINT('',(0.00106080777098589,0.015933091344881,0.0273573560001306));
#1048=CARTESIAN_POINT('',(0.000811721041305324,0.0159628638855403,0.0274211697828823));
#1049=CARTESIAN_POINT('',(0.00042702464422114,0.0159896290921646,0.0274783639408));
#1050=CARTESIAN_POINT('',(0.000296154171928351,0.0159955750149611,0.0274907908599587));
#1051=CARTESIAN_POINT('',(3.60017674150362E-5,0.0160009768769922,0.0275020481570889));
#1052=CARTESIAN_POINT('',(-9.36375259230122E-5,0.0160004962467137,0.0275010441727781));
#1053=CARTESIAN_POINT('',(-0.000352057456860819,0.0159932949230596,0.027485995197333));
#1054=CARTESIAN_POINT('',(-0.000480836646982261,0.0159865737356691,0.0274719235351934));
#1055=CARTESIAN_POINT('',(-0.000737491095934282,0.015966973754179,0.0274298591880317));
#1056=CARTESIAN_POINT('',(-0.000865283978592201,0.0159540507335733,0.0274016982094442));
#1057=CARTESIAN_POINT('',(-0.00111347931828686,0.0159231182777752,0.0273315332355903));
#1058=CARTESIAN_POINT('',(-0.00123466680017315,0.0159050567013462,0.0272893767721139));
#1059=CARTESIAN_POINT('',(-0.00147058276483051,0.0158645858054148,0.0271887807870865));
#1060=CARTESIAN_POINT('',(-0.00158622707684234,0.0158419606112912,0.0271297862044508));
#1061=CARTESIAN_POINT('',(-0.00180442785421495,0.0157946457704815,0.0269936936557112));
#1062=CARTESIAN_POINT('',(-0.00190683418988492,0.0157700288780944,0.0269170338447029));
#1063=CARTESIAN_POINT('',(-0.00209423476735367,0.0157216284638243,0.0267402704932923));
#1064=CARTESIAN_POINT('',(-0.00217802558209529,0.0156981213188865,0.0266410205778889));
#1065=CARTESIAN_POINT('',(-0.00227846938001148,0.0156687544036492,0.0264750232229209));
#1066=CARTESIAN_POINT('',(-0.00230803024286256,0.0156598698788816,0.0264160377358062));
#1067=CARTESIAN_POINT('',(-0.002355288324106,0.0156454710171248,0.0262948448130824));
#1068=CARTESIAN_POINT('',(-0.00237332237363417,0.0156398618883873,0.0262323379286498));
#1069=CARTESIAN_POINT('',(-0.0023966068232772,0.0156325896324542,0.0261029291075308));
#1070=CARTESIAN_POINT('',(-0.00240151876862144,0.0156310360843607,0.0260369545898259));
#1071=CARTESIAN_POINT('',(-0.00239764760996397,0.015632253275101,0.0259070975333765));
#1072=CARTESIAN_POINT('',(-0.00238901537243192,0.0156349764296121,0.0258426478870913));
#1073=CARTESIAN_POINT('',(-0.00234286184135474,0.0156493160814626,0.0256496209841334));
#1074=CARTESIAN_POINT('',(-0.00149313460776995,0.0127718602685076,0.0258426478870913));
#1075=CARTESIAN_POINT('',(-0.00146428865084671,0.0127808225509141,0.0256496209841334));
#1076=CARTESIAN_POINT('',(-0.00142991799005769,0.0127914030699571,0.0255318761830933));
#1077=CARTESIAN_POINT('',(-0.00133959823766592,0.0128174355624883,0.0253149637944541));
#1078=CARTESIAN_POINT('',(-0.00128564031354395,0.012832285654958,0.0252202626760036));
#1079=CARTESIAN_POINT('',(-0.00116523991178,0.0128627226545339,0.0250496437259965));
#1080=CARTESIAN_POINT('',(-0.00109903768776298,0.0128782231984284,0.0249747700794185));
#1081=CARTESIAN_POINT('',(-0.000961408353978927,0.0129072028070692,0.0248447456059742));
#1082=CARTESIAN_POINT('',(-0.000889327210000597,0.0129208599380024,0.0247887816991562));
#1083=CARTESIAN_POINT('',(-0.000739494557730779,0.0129455953347369,0.0246919049327205));
#1084=CARTESIAN_POINT('',(-0.000662145879248536,0.0129565829427853,0.0246514075132321));
#1085=CARTESIAN_POINT('',(-0.000506355764747789,0.0129749126096468,0.024585515108272));
#1086=CARTESIAN_POINT('',(-0.000427422258423903,0.0129823415539919,0.0245598187233129));
#1087=CARTESIAN_POINT('',(-0.000187682093693651,0.0129990443108886,0.0245027713039808));
#1088=CARTESIAN_POINT('',(-2.25011749636246E-5,0.013002563301431,0.0244913970487376));
#1089=CARTESIAN_POINT('',(0.000219950253948506,0.0129958140835816,0.0245139755500309));
#1090=CARTESIAN_POINT('',(0.000300268043079188,0.0129916174727937,0.0245280598353228));
#1091=CARTESIAN_POINT('',(0.000459878540039185,0.0129794495298984,0.0245698554123797));
#1092=CARTESIAN_POINT('',(0.000539604932473717,0.0129714201795996,0.0245978049329398));
#1093=CARTESIAN_POINT('',(0.000773866004539243,0.0129422565441444,0.0247036377294743));
#1094=CARTESIAN_POINT('',(0.000921980958633719,0.0129162657920419,0.0248010325405486));
#1095=CARTESIAN_POINT('',(0.00112783278192112,0.0128716447707674,0.0250063299785931));
#1096=CARTESIAN_POINT('',(0.0011919466198162,0.0128562225697528,0.0250832600058029));
#1097=CARTESIAN_POINT('',(0.00130868781558262,0.0128260719630786,0.0252593847176274));
#1098=CARTESIAN_POINT('',(0.00136149468629497,0.0128112598573189,0.0253594588157242));
#1099=CARTESIAN_POINT('',(0.00144493093633085,0.0127868636689059,0.0255803907023834));
#1100=CARTESIAN_POINT('',(0.00147618206351926,0.012777145183946,0.0257038772053611));
#1101=CARTESIAN_POINT('',(0.00149787699546828,0.0127703691581193,0.0258969510484902));
#1102=CARTESIAN_POINT('',(0.00150097393603544,0.0127693897892376,0.0259636124129345));
#1103=CARTESIAN_POINT('',(0.00149847293784096,0.0127701761574286,0.0260941998510971));
#1104=CARTESIAN_POINT('',(0.00149298875635768,0.0127719059484275,0.0261588640194155));
#1105=CARTESIAN_POINT('',(0.00146408163667126,0.0127808861302226,0.026351010486858));
#1106=CARTESIAN_POINT('',(0.00142894587025603,0.012791691325554,0.026470870914355));
#1107=CARTESIAN_POINT('',(0.00133896546062729,0.0128176097345839,0.0266861376277901));
#1108=CARTESIAN_POINT('',(0.00128499806305974,0.0128324617331836,0.0267809013929505));
#1109=CARTESIAN_POINT('',(0.00116380117543453,0.0128630724083452,0.0269521141772068));
#1110=CARTESIAN_POINT('',(0.00109835876851552,0.0128783757238231,0.027025925991427));
#1111=CARTESIAN_POINT('',(0.0009607774098967,0.0129073259985244,0.0271558196350551));
#1112=CARTESIAN_POINT('',(0.000888169712545714,0.0129210711062265,0.0272120663722265));
#1113=CARTESIAN_POINT('',(0.000663004856866181,0.0129581820905506,0.0273573560001306));
#1114=CARTESIAN_POINT('',(0.000507325650815827,0.0129767899284627,0.0274211697828823));
#1115=CARTESIAN_POINT('',(0.000266890402638213,0.0129935181826029,0.0274783639408));
#1116=CARTESIAN_POINT('',(0.000185096357455219,0.0129972343843507,0.0274907908599587));
#1117=CARTESIAN_POINT('',(2.25011046343976E-5,0.0130006105481202,0.0275020481570889));
#1118=CARTESIAN_POINT('',(-5.85234537018826E-5,0.0130003101541961,0.0275010441727781));
#1119=CARTESIAN_POINT('',(-0.000220035910538012,0.0129958093269123,0.027485995197333));
#1120=CARTESIAN_POINT('',(-0.000300522904363913,0.0129916085847932,0.0274719235351934));
#1121=CARTESIAN_POINT('',(-0.000460931934958927,0.0129793585963619,0.0274298591880317));
#1122=CARTESIAN_POINT('',(-0.000540802486620126,0.0129712817084833,0.0274016982094442));
#1123=CARTESIAN_POINT('',(-0.000695924573929287,0.0129519489236095,0.0273315332355903));
#1124=CARTESIAN_POINT('',(-0.000771666750108222,0.0129406604383414,0.0272893767721139));
#1125=CARTESIAN_POINT('',(-0.00091911422801907,0.0129153661283843,0.0271887807870865));
#1126=CARTESIAN_POINT('',(-0.000991391923026458,0.012901225382057,0.0271297862044508));
#1127=CARTESIAN_POINT('',(-0.00112776740888434,0.0128716536065509,0.0269936936557112));
#1128=CARTESIAN_POINT('',(-0.00119177136867808,0.012856268048809,0.0269170338447029));
#1129=CARTESIAN_POINT('',(-0.00130889672959605,0.0128260177898902,0.0267402704932923));
#1130=CARTESIAN_POINT('',(-0.00136126598880955,0.012811325824304,0.0266410205778889));
#1131=CARTESIAN_POINT('',(-0.00142404336250718,0.0127929715022807,0.0264750232229209));
#1132=CARTESIAN_POINT('',(-0.0014425189017891,0.012787418674301,0.0264160377358062));
#1133=CARTESIAN_POINT('',(-0.00147205520256625,0.012778419385703,0.0262948448130824));
#1134=CARTESIAN_POINT('',(-0.00148332648352135,0.0127749136802421,0.0262323379286498));
#1135=CARTESIAN_POINT('',(-0.00149787926454825,0.0127703685202838,0.0261029291075308));
#1136=CARTESIAN_POINT('',(-0.0015009492303884,0.0127693975527254,0.0260369545898259));
#1137=CARTESIAN_POINT('',(-0.00149852975622748,0.0127701582969381,0.0259070975333765));
#1138=CARTESIAN_POINT('',(-0.00149313460776995,0.0127718602685076,0.0258426478870913));
#1139=CARTESIAN_POINT('',(-0.00146428865084671,0.0127808225509141,0.0256496209841334));
#1140=CARTESIAN_POINT('',(-0.00231833472633339,0.0156602112617475,0.0265836587999376));
#1141=CARTESIAN_POINT('',(-0.0024830740396943,0.0156052989771141,0.0257496825901136));
#1142=CARTESIAN_POINT('',(-0.00199115428732656,0.0157571307111701,0.0250874443562399));
#1143=CARTESIAN_POINT('',(-0.00131653389255423,0.0159022180637664,0.0247102591909271));
#1144=CARTESIAN_POINT('',(-0.000561054627566863,0.0159929823429127,0.0245135787756817));
#1145=CARTESIAN_POINT('',(0.00022466724908937,0.0160097803049743,0.0244802432075594));
#1146=CARTESIAN_POINT('',(0.000998063496596604,0.015949309136692,0.0246041446916796));
#1147=CARTESIAN_POINT('',(0.00171292154688196,0.0158252932389569,0.02490167321643));
#1148=CARTESIAN_POINT('',(0.00231871918779912,0.0156600949749256,0.0254165474380705));
#1149=CARTESIAN_POINT('',(0.0024830446905258,0.0156053197872194,0.0262516855856112));
#1150=CARTESIAN_POINT('',(0.00198929132813467,0.0157576595628451,0.0269141872708632));
#1151=CARTESIAN_POINT('',(0.00131402634170727,0.0159026058407385,0.0272906120414086));
#1152=CARTESIAN_POINT('',(0.000560505007299774,0.0159929548438126,0.0274863420526699));
#1153=CARTESIAN_POINT('',(-0.000224505711411903,0.01600981892375,0.0275198150768765));
#1154=CARTESIAN_POINT('',(-0.000999567110004264,0.0159491429705074,0.0273955157501573));
#1155=CARTESIAN_POINT('',(-0.00171351573920862,0.0158251162282659,0.0270978162575978));
#1156=CARTESIAN_POINT('',(-0.00231833472633339,0.0156602112617475,0.0265836587999376));
#1157=CARTESIAN_POINT('',(-0.0024830740396943,0.0156052989771141,0.0257496825901136));
#1158=CARTESIAN_POINT('',(-0.00199115428732656,0.0157571307111701,0.0250874443562399));
#1159=CARTESIAN_POINT('',(-0.00237363086207286,0.0156397563135623,0.0257783055861053));
#1160=CARTESIAN_POINT('',(-0.00150670047712407,0.0127676293306051,0.0261867366664662));
#1161=CARTESIAN_POINT('',(-0.00150166165868753,0.0127692614830233,0.0257843168543403));
#1162=CARTESIAN_POINT('',(-0.00139918641715374,0.0128008802471762,0.0254242210749437));
#1163=CARTESIAN_POINT('',(-0.00124121402518764,0.0128446919058154,0.0251385419374876));
#1164=CARTESIAN_POINT('',(-0.00104495661963644,0.0128911285624427,0.0249112105520044));
#1165=CARTESIAN_POINT('',(-0.000760114504082919,0.0129457406331531,0.0246862526217438));
#1166=CARTESIAN_POINT('',(-0.000373003426104546,0.0129937628202598,0.0245199774139007));
#1167=CARTESIAN_POINT('',(0.000114696601321869,0.0130067799154224,0.0244778550989205));
#1168=CARTESIAN_POINT('',(0.00052257132254798,0.0129770762150086,0.0245755687148414));
#1169=CARTESIAN_POINT('',(0.000832145692558563,0.0129320908917083,0.0247419730300416));
#1170=CARTESIAN_POINT('',(0.00105214520402256,0.0128895821117521,0.0249181110262829));
#1171=CARTESIAN_POINT('',(0.00124727894537515,0.0128431235931025,0.0251471600078984));
#1172=CARTESIAN_POINT('',(0.00140723199524701,0.0127985461768589,0.0254415658900341));
#1173=CARTESIAN_POINT('',(0.00150495112513082,0.0127681805035417,0.0258069504842046));
#1174=CARTESIAN_POINT('',(0.00150286360297381,0.0127688589772011,0.0262087261931506));
#1175=CARTESIAN_POINT('',(0.00140135641116618,0.0128002925708103,0.026572651188396));
#1176=CARTESIAN_POINT('',(0.00124012370351346,0.0128449668561018,0.0268628363345963));
#1177=CARTESIAN_POINT('',(0.00104461400348168,0.0128912051742405,0.0270891475514361));
#1178=CARTESIAN_POINT('',(0.000758298799263497,0.0129460456967138,0.0273149248235789));
#1179=CARTESIAN_POINT('',(0.00037273447029307,0.0129937068274052,0.027479761184373));
#1180=CARTESIAN_POINT('',(-0.000114427897779731,0.0130068440396678,0.0275223694381467));
#1181=CARTESIAN_POINT('',(-0.000523911955449545,0.012976902206184,0.0274237888725965));
#1182=CARTESIAN_POINT('',(-0.000831698244397656,0.0129321628343604,0.0272583190615545));
#1183=CARTESIAN_POINT('',(-0.00105278925671333,0.0128894518782941,0.0270813194386669));
#1184=CARTESIAN_POINT('',(-0.00124720825463539,0.0128431304612011,0.0268528097288625));
#1185=CARTESIAN_POINT('',(-0.00140709442789042,0.012798591633158,0.0265588154563829));
#1186=CARTESIAN_POINT('',(-0.00150670047712407,0.0127676293306051,0.0261867366664662));
#1187=CARTESIAN_POINT('',(-0.00150166165868753,0.0127692614830233,0.0257843168543403));
#1188=CARTESIAN_POINT('',(-0.00139918641715374,0.0128008802471762,0.0254242210749437));
#1189=CARTESIAN_POINT('',(-0.00148351928879554,0.0127748476959764,0.0257783055861053));
#1190=CARTESIAN_POINT('',(0.,0.008,0.05));
#1191=CARTESIAN_POINT('',(0.,0.008,0.05));
#1192=CARTESIAN_POINT('',(0.00496078370824611,0.008625,0.05));
#1193=CARTESIAN_POINT('',(-0.00496078370824611,0.008625,0.05));
#1194=CARTESIAN_POINT('',(0.00595294044989533,0.00075,0.05));
#1195=CARTESIAN_POINT('',(0.,0.,0.05));
#1196=CARTESIAN_POINT('',(0.008929410674843,0.001125,0.05));
#1197=CARTESIAN_POINT('',(0.00793725393319378,0.009,0.05));
#1198=CARTESIAN_POINT('',(0.00793725393319377,0.009,0.05));
#1199=CARTESIAN_POINT('',(0.,0.008,0.05));
#1200=CARTESIAN_POINT('',(-0.00793725393319377,0.009,0.05));
#1201=CARTESIAN_POINT('',(-0.00793725393319378,0.009,0.05));
#1202=CARTESIAN_POINT('',(-0.008929410674843,0.001125,0.05));
#1203=CARTESIAN_POINT('',(0.,0.,0.05));
#1204=CARTESIAN_POINT('',(-0.00496078370824611,0.008625,0.05));
#1205=CARTESIAN_POINT('',(-0.00793725393319378,0.009,0.0015));
#1206=CARTESIAN_POINT('',(-0.00496078370824611,0.008625,0.0015));
#1207=CARTESIAN_POINT('',(-0.00595294044989533,0.000749999999999987,0.0015));
#1208=CARTESIAN_POINT('',(0.,0.,0.0015));
#1209=CARTESIAN_POINT('',(0.,0.,0.0015));
#1210=CARTESIAN_POINT('',(-0.008929410674843,0.001125,0.0015));
#1211=CARTESIAN_POINT('',(-0.00793725393319378,0.009,0.0015));
#1212=CARTESIAN_POINT('',(-0.00793725393319378,0.009,0.));
#1213=CARTESIAN_POINT('',(-0.008929410674843,0.001125,0.));
#1214=CARTESIAN_POINT('',(-0.00793725393319377,0.009,0.));
#1215=CARTESIAN_POINT('',(0.,0.008,0.));
#1216=CARTESIAN_POINT('',(0.00793725393319377,0.009,0.));
#1217=CARTESIAN_POINT('',(0.008929410674843,0.001125,0.));
#1218=CARTESIAN_POINT('',(0.00892941067484299,0.001125,0.));
#1219=CARTESIAN_POINT('',(0.,0.,0.));
#1220=CARTESIAN_POINT('',(-0.00496078370824611,0.008625,0.));
#1221=CARTESIAN_POINT('',(-0.00496078370824611,0.008625,0.));
#1222=CARTESIAN_POINT('',(-0.00595294044989533,0.000749999999999987,0.));
#1223=CARTESIAN_POINT('',(0.,0.008,0.));
#1224=CARTESIAN_POINT('',(0.00496078370824611,0.008625,0.));
#1225=CARTESIAN_POINT('',(0.00595294044989533,0.00075,0.));
#1226=CARTESIAN_POINT('',(0.00595294044989533,0.00075,0.));
#1227=CARTESIAN_POINT('',(0.,0.,0.));
#1228=MECHANICAL_DESIGN_GEOMETRIC_PRESENTATION_REPRESENTATION('',(#625),
#1229);
#1229=(
GEOMETRIC_REPRESENTATION_CONTEXT(3)
GLOBAL_UNCERTAINTY_ASSIGNED_CONTEXT((#1230))
GLOBAL_UNIT_ASSIGNED_CONTEXT((#1233,#1232,#1231))
REPRESENTATION_CONTEXT('Sock','TOP_LEVEL_ASSEMBLY_PART')
);
#1230=UNCERTAINTY_MEASURE_WITH_UNIT(LENGTH_MEASURE(2.E-5),#1233,
'DISTANCE_ACCURACY_VALUE','Maximum Tolerance applied to model');
#1231=(
NAMED_UNIT(*)
SI_UNIT($,.STERADIAN.)
SOLID_ANGLE_UNIT()
);
#1232=(
NAMED_UNIT(*)
PLANE_ANGLE_UNIT()
SI_UNIT($,.RADIAN.)
);
#1233=(
LENGTH_UNIT()
NAMED_UNIT(*)
SI_UNIT($,.METRE.)
);
#1234=PRODUCT_DEFINITION_SHAPE('','',#1235);
#1235=PRODUCT_DEFINITION('','',#1237,#1236);
#1236=PRODUCT_DEFINITION_CONTEXT('',#1243,'design');
#1237=PRODUCT_DEFINITION_FORMATION_WITH_SPECIFIED_SOURCE('','',#1239,
 .NOT_KNOWN.);
#1238=PRODUCT_RELATED_PRODUCT_CATEGORY('','',(#1239));
#1239=PRODUCT('Sock','Sock','Sock',(#1241));
#1240=PRODUCT_CATEGORY('','');
#1241=PRODUCT_CONTEXT('',#1243,'mechanical');
#1242=APPLICATION_PROTOCOL_DEFINITION('international standard',
'ap242_managed_model_based_3d_engineering',2020,#1243);
#1243=APPLICATION_CONTEXT('managed model based 3d engineering');
ENDSEC;
END-ISO-10303-21;
